# xmcd
#
# Track frame offsets: 
#        150
#        18983
#        39681
#        60481
#        86945
#        104660
#        130185
#        151258
#        178316
#        205199
#
# Disc length: 3069 seconds
#
# Revision: 0
# Processed by: cddbd v1.5.2PL0 Copyright (c) Steve Scherf et al.
# Submitted via: ExactAudioCopy v1.3
#
DISCID=890bfb0a
DTITLE=Ben Poole - Anytime You Need Me
DYEAR=2018
DGENRE=Blues
TTITLE0=Anytime You Need Me
TTITLE1=Take It No More
TTITLE2=You Could Say
TTITLE3=Found Out The Hard Way
TTITLE4=Further On Down The Line
TTITLE5=Dirty Laundry
TTITLE6=Start The Car
TTITLE7=Don't Cry For Me
TTITLE8=Let Me Be
TTITLE9=Holding On
EXTD=
EXTT0=
EXTT1=
EXTT2=
EXTT3=
EXTT4=
EXTT5=
EXTT6=
EXTT7=
EXTT8=
EXTT9=
PLAYORDER=
